<?xml version="1.0" encoding="UTF-8" standalone="no"?>
<!-- Created with Inkscape (http://www.inkscape.org/) -->

<svg
   width="650"
   height="200"
   viewBox="0 0 171.97916 52.916666"
   version="1.1"
   id="svg1"
   xml:space="preserve"
   inkscape:version="1.4.2 (ebf0e94, 2025-05-08)"
   sodipodi:docname="logo.svg"
   xmlns:inkscape="http://www.inkscape.org/namespaces/inkscape"
   xmlns:sodipodi="http://sodipodi.sourceforge.net/DTD/sodipodi-0.dtd"
   xmlns="http://www.w3.org/2000/svg"
   xmlns:svg="http://www.w3.org/2000/svg"><sodipodi:namedview
     id="namedview1"
     pagecolor="#ffffff"
     bordercolor="#000000"
     borderopacity="0.25"
     inkscape:showpageshadow="2"
     inkscape:pageopacity="0.0"
     inkscape:pagecheckerboard="0"
     inkscape:deskcolor="#d1d1d1"
     inkscape:document-units="mm"
     inkscape:zoom="0.25417602"
     inkscape:cx="147.53555"
     inkscape:cy="474.08091"
     inkscape:window-width="1920"
     inkscape:window-height="1009"
     inkscape:window-x="1912"
     inkscape:window-y="-8"
     inkscape:window-maximized="1"
     inkscape:current-layer="layer1" /><defs
     id="defs1"><pattern
       id="EMFhbasepattern"
       patternUnits="userSpaceOnUse"
       width="6"
       height="6"
       x="0"
       y="0" /></defs><g
     inkscape:label="Lager 1"
     inkscape:groupmode="layer"
     id="layer1"><path
       style="fill:#ffb605;fill-opacity:1;stroke-width:0.636878"
       d="M 88.293808,26.599492 C 87.582629,26.404631 86.573498,26.01176 86.051288,25.726476 84.839202,25.06426 83.441914,23.43414 82.822817,21.960057 82.399464,20.951996 82.351214,20.63116 82.3554,18.852041 c 0.0078,-3.228285 0.799184,-4.955759 3.045967,-6.647339 1.375784,-1.03583 2.638678,-1.475555 4.570052,-1.59125 1.213497,-0.07272 1.639175,-0.01659 2.93252,0.386265 1.817292,0.566103 2.656183,1.035752 3.611141,2.021673 1.380558,1.425305 2.133693,3.468064 2.121956,5.755407 -0.0124,2.468701 -0.793245,4.307358 -2.533045,5.966704 -1.917668,1.828998 -5.126061,2.59142 -7.810183,1.855991 z m 4.139319,-4.129923 c 1.22863,-0.623036 1.842549,-1.663037 2.000323,-3.388603 0.09349,-1.022465 0.05117,-1.305066 -0.321363,-2.143244 -0.774081,-1.741939 -2.026262,-2.48112 -3.979885,-2.349439 -1.377551,0.09287 -2.277375,0.614632 -3.11473,1.806159 -0.43709,0.621935 -0.510892,0.889435 -0.522319,1.892845 -0.0078,0.642711 0.09411,1.538643 0.225561,1.990958 0.310557,1.06918 1.348092,2.120762 2.393131,2.425505 0.965967,0.281687 2.517913,0.172194 3.319282,-0.234181 z m 41.637083,4.156544 c -2.41394,-0.647114 -3.58464,-1.448623 -4.84331,-3.315933 -0.96249,-1.427925 -1.17256,-2.259761 -1.16937,-4.630658 0.003,-1.932553 0.0498,-2.268397 0.45443,-3.234922 0.62182,-1.485214 1.41415,-2.460126 2.73394,-3.363935 1.41671,-0.970183 3.10928,-1.509355 4.73823,-1.509355 1.52228,0 3.98576,0.730498 5.13863,1.523775 1.65572,1.139245 2.73461,2.978894 3.09079,5.270269 0.61425,3.951263 -1.3182,7.537023 -4.77384,8.858075 -1.87418,0.716482 -3.69071,0.85272 -5.3695,0.402684 z m 4.02069,-4.154854 c 1.77973,-0.768655 2.60623,-3.605915 1.66208,-5.705731 -0.70371,-1.565016 -2.02981,-2.30384 -3.90795,-2.177245 -1.38373,0.09334 -2.27776,0.614989 -3.12804,1.8254 -0.47933,0.682341 -0.52198,0.859465 -0.51806,2.151632 0.006,2.194859 0.85899,3.564952 2.58742,4.159211 0.78087,0.268462 2.38037,0.145898 3.30455,-0.253267 z m 17.83884,4.035872 c -0.3042,-0.132099 -0.86069,-0.891482 -1.73843,-2.372092 -0.71007,-1.197759 -1.38831,-2.177726 -1.50722,-2.177726 -0.26886,0 -1.32587,1.618926 -2.21432,3.391487 -0.5316,1.060621 -0.79413,1.17458 -2.85341,1.238537 -2.71031,0.08419 -2.71042,0.08729 0.12527,-4.248983 0.91265,-1.395614 1.79091,-2.731566 1.95169,-2.96877 0.44867,-0.661953 0.53241,-1.000448 0.35981,-1.454454 -0.0871,-0.229002 -1.01606,-1.722744 -2.06446,-3.319421 -1.04839,-1.596661 -1.90649,-3.07772 -1.90688,-3.291203 -4e-4,-0.213498 0.0186,-0.392715 0.0425,-0.398282 0.0237,-0.0062 0.78057,-0.04791 1.68188,-0.09427 2.13382,-0.109618 2.3693,0.03551 3.62253,2.232039 0.52181,0.914568 1.03523,1.663935 1.14092,1.665253 0.18439,0.0031 0.81483,-0.815494 1.41908,-1.840796 0.79975,-1.357038 1.01908,-1.626213 1.51985,-1.865216 0.76961,-0.367304 3.21585,-0.356637 3.58811,0.01566 0.3241,0.324108 0.38166,0.213994 -2.06603,3.951528 -2.18028,3.32922 -2.07496,3.074557 -1.62784,3.935465 0.35644,0.686294 1.87192,3.059316 3.27079,5.12158 0.87315,1.287236 1.2501,2.055814 1.14395,2.332462 -0.11706,0.305192 -3.25075,0.423833 -3.88764,0.147138 z M 66.880948,26.3301 c -0.359505,-0.432934 -0.442702,-14.66657 -0.08853,-15.150917 0.220676,-0.301828 0.517077,-0.342047 2.983499,-0.404809 4.381935,-0.111478 6.266733,0.353705 7.99937,1.974523 3.663344,3.426884 3.208036,10.0434 -0.871264,12.661285 -1.508797,0.968277 -2.730574,1.194303 -6.48679,1.200008 -2.861835,0.0047 -3.330926,-0.03287 -3.536269,-0.28009 z m 6.579429,-3.526842 c 0.88018,-0.188783 1.699395,-0.813587 2.331253,-1.778003 0.448191,-0.684077 0.597206,-2.148794 0.342713,-3.368446 -0.440981,-2.113336 -1.623034,-3.077085 -3.807769,-3.104513 -1.684743,-0.02109 -1.629236,-0.160332 -1.644369,4.122574 -0.0124,3.613466 -0.0031,3.711966 0.365459,4.010988 0.434763,0.352078 1.155106,0.387133 2.412713,0.117369 z m 30.645013,3.556967 c -0.25607,-0.256089 -0.28717,-0.892071 -0.28717,-5.871831 0,-6.594716 0.16909,-6.121734 -2.18858,-6.121734 -1.694065,0 -1.778968,-0.08589 -1.778968,-1.800066 0,-1.859603 -0.293114,-1.7707 5.928218,-1.797864 6.26719,-0.02744 5.97437,-0.117835 5.97437,1.846037 0,1.600258 -0.2334,1.812997 -1.95323,1.780313 -2.06169,-0.03923 -1.91361,-0.491619 -2.0143,6.153937 -0.0474,3.131196 -0.15086,5.757625 -0.22978,5.836512 -0.0789,0.07892 -0.82299,0.170085 -1.65347,0.20266 -1.23289,0.04838 -1.56261,0.0062 -1.79709,-0.227964 z m 9.98897,-0.01612 c -0.238,-0.238011 -0.27108,-1.173247 -0.27108,-7.664595 0,-6.491348 0.033,-7.426584 0.27108,-7.664594 0.38487,-0.384917 6.66336,-0.395987 7.94944,-0.01395 1.85872,0.552025 3.05791,1.884752 3.36532,3.74003 0.16991,1.025504 0.15008,1.191093 -0.26738,2.234721 -0.55132,1.378202 -0.55374,1.48692 -0.0454,2.039457 1.35102,1.468671 1.3033,4.584036 -0.0929,6.066724 -1.23818,1.31485 -2.20183,1.528766 -6.89834,1.53134 -3.17148,0.0016 -3.78076,-0.03923 -4.01065,-0.269051 z m 7.66397,-3.696757 c 0.44035,-0.440376 0.45635,-1.398373 0.0298,-1.784437 -0.22109,-0.200086 -0.7952,-0.319347 -1.92277,-0.399382 -1.44285,-0.102485 -1.63146,-0.0814 -1.84106,0.205249 -0.28909,0.395398 -0.30714,1.835928 -0.0265,2.116592 0.13133,0.131324 0.79351,0.207017 1.81128,0.207017 1.37425,0 1.65372,-0.04946 1.94925,-0.345039 z m -1.22094,-5.886688 c 0.63289,-0.22063 0.9434,-0.831588 0.78627,-1.547016 -0.12512,-0.569979 -0.23405,-0.617516 -1.7587,-0.767755 -0.99406,-0.09799 -1.24216,-0.06915 -1.48389,0.172643 -0.38132,0.381351 -0.38421,1.601034 -0.005,2.02034 0.33265,0.367598 1.57911,0.42929 2.46112,0.121865 z"
       id="path3"
       sodipodi:nodetypes="ssssssssssssscsssssssscssssssssssssssssssssssssccscsssssssssssssscssssscssssssssssssssssssssscsssssssssscsssccc" /><path
       style="fill:#ffb605;fill-opacity:1;stroke-width:0.584966"
       d="m 21.176677,46.313826 c -0.346808,-0.272803 -0.417467,-0.456393 -0.417467,-1.084607 0,-1.222009 0.107633,-1.264476 3.334835,-1.315858 l 2.765103,-0.04403 0.04464,-1.861821 0.04464,-1.861821 h -7.280472 c -6.194441,0 -7.429981,-0.0383 -8.282748,-0.256786 C 9.7723464,39.475675 8.6156434,38.531306 7.8181004,36.976631 L 7.3710284,36.10515 V 22.398976 8.692822 L 7.8166274,7.785153 C 8.3977184,6.601456 9.1593034,5.8347081 10.272493,5.3125915 l 0.901093,-0.4226393 h 20.201092 20.2011 L 52.46259,5.332794 c 1.0848,0.5416834 1.724698,1.1869684 2.310616,2.3300899 l 0.44669,0.8714968 0.04392,13.5476973 c 0.03913,12.070888 0.01633,13.632586 -0.209738,14.326261 -0.401274,1.231498 -1.476585,2.520207 -2.527684,3.029315 -1.363218,0.660278 -2.021263,0.708032 -9.75682,0.708032 h -7.44395 l 0.04464,1.861821 0.04464,1.861821 2.739,0.01085 c 2.979608,0.0124 3.014817,0.02264 3.321955,0.950276 0.19397,0.585825 -0.08213,1.378248 -0.571464,1.640151 -0.218255,0.11675 -3.32545,0.170938 -9.814809,0.170938 -9.366379,0 -9.501121,-0.0047 -9.912914,-0.328418 z M 51.567136,36.66787 c 0.921705,-0.866024 0.880074,-0.185373 0.880074,-14.387628 0,-12.8477742 -0.0053,-13.0705439 -0.319719,-13.5121763 -0.175839,-0.2469724 -0.55991,-0.5974844 -0.853486,-0.77895 L 50.740232,7.6592093 31.057609,7.7007613 11.374985,7.7423133 10.759357,8.4361122 10.143729,9.129911 v 13.106857 c 0,11.231128 0.03343,13.173867 0.233571,13.575094 0.251476,0.504132 0.80857,1.070623 1.192389,1.212489 0.130719,0.04822 9.090703,0.0752 19.911087,0.05985 l 19.673428,-0.02806 z M 25.87811,31.526785 C 25.439312,31.157512 24.701587,29.79511 23.230691,26.637587 L 22.51101,25.092664 h -3.441879 -3.441882 l -0.44438,-0.425755 c -0.609266,-0.583779 -0.621588,-1.47171 -0.02692,-1.93953 0.395682,-0.311254 0.613522,-0.328403 4.174318,-0.328403 3.859649,0 4.384409,0.07411 4.896938,0.691737 0.09576,0.115354 0.640948,1.14782 1.211537,2.294275 0.570587,1.14647 1.101406,2.084466 1.179597,2.084466 0.07819,0 0.190411,-0.321736 0.249376,-0.714963 0.05896,-0.393242 0.170282,-0.753987 0.247369,-0.801617 0.07709,-0.0476 0.140162,-0.222553 0.140162,-0.388654 0,-0.1661 0.09692,-0.607546 0.215379,-0.980974 0.118455,-0.373428 0.340376,-1.142424 0.493154,-1.708915 0.152782,-0.566459 0.335345,-1.208194 0.405706,-1.426064 0.131359,-0.406732 0.478282,-1.63043 0.898451,-3.169058 0.13089,-0.479324 0.296666,-1.049737 0.368383,-1.267623 0.07171,-0.21787 0.284593,-0.93091 0.473058,-1.584521 0.599322,-2.078513 0.811166,-2.538069 1.28233,-2.781723 1.147827,-0.593624 2.257713,0.126517 2.600503,1.687394 0.06394,0.291145 0.174211,0.638649 0.245049,0.772221 0.07084,0.13365 0.350549,0.955904 0.62158,1.827401 0.271031,0.871496 0.552628,1.727132 0.625772,1.901434 0.07315,0.174303 0.464201,1.350806 0.869016,2.614475 0.404814,1.263654 0.804821,2.421381 0.888904,2.57269 0.08408,0.151324 0.152875,0.383087 0.152875,0.514984 0,0.466301 0.402812,0.221762 0.940807,-0.571173 0.29959,-0.441555 0.769757,-0.974493 1.044816,-1.184317 0.49504,-0.377598 0.536879,-0.381444 4.129271,-0.377955 3.332938,0.0031 3.661496,0.02837 4.025266,0.307859 0.558493,0.429105 0.571281,1.634632 0.02205,2.079412 -0.340857,0.276028 -0.65972,0.302897 -3.593904,0.302897 h -3.219848 l -0.534729,0.673426 c -0.294102,0.370389 -0.886684,1.117648 -1.316849,1.660587 -0.430167,0.542924 -0.9774,1.068033 -1.216076,1.166905 -0.662322,0.274354 -1.504467,0.05427 -1.772084,-0.463431 -0.289005,-0.558925 -3.420359,-9.967707 -3.420359,-10.277178 0,-0.128688 -0.08467,-0.205761 -0.188148,-0.171264 -0.194319,0.06481 -0.221033,0.137526 -0.684544,1.865123 -0.151992,0.56646 -0.365274,1.31516 -0.473972,1.66375 -0.230905,0.740514 -0.398635,1.306725 -0.868359,2.931373 -0.188977,0.653626 -0.402271,1.366651 -0.473987,1.584536 -0.07172,0.217871 -0.250362,0.823945 -0.396987,1.346836 -0.146627,0.522908 -0.326883,1.128982 -0.40057,1.346852 -0.07369,0.217886 -0.284517,0.895265 -0.468506,1.505309 -0.367335,1.217915 -0.54652,1.520161 -1.06498,1.796313 -0.539132,0.287176 -1.093647,0.218956 -1.585604,-0.195016 z"
       id="path2"
       sodipodi:nodetypes="ssscccscscccsscccsscscsscccsssssssssscccccsssscssscccssssssscssssssssssssssssscssscsssssssssssssss" /><text
       xml:space="preserve"
       style="font-style:normal;font-variant:normal;font-weight:normal;font-stretch:normal;font-size:15.3151px;font-family:'Gill Sans MT';-inkscape-font-specification:'Gill Sans MT, Normal';font-variant-ligatures:normal;font-variant-caps:normal;font-variant-numeric:normal;font-variant-east-asian:normal;text-align:start;writing-mode:lr-tb;direction:ltr;text-anchor:start;fill:#ffffff;fill-opacity:1;stroke-width:0.269245"
       x="65.768463"
       y="42.218536"
       id="text3"><tspan
         sodipodi:role="line"
         id="tspan3"
         style="font-style:normal;font-variant:normal;font-weight:normal;font-stretch:normal;font-size:15.3151px;font-family:Bahnschrift;-inkscape-font-specification:'Bahnschrift @wdth=87';font-variant-ligatures:normal;font-variant-caps:normal;font-variant-numeric:normal;font-variant-east-asian:normal;font-variation-settings:'wdth' 87;fill:#ffffff;stroke-width:0.269245"
         x="65.768463"
         y="42.218536">MONITOR</tspan></text></g></svg>
