<?xml version="1.0" encoding="UTF-8" standalone="no"?>
<!-- Created with Inkscape (http://www.inkscape.org/) -->

<svg
   width="256"
   height="256"
   viewBox="0 0 67.733334 67.733333"
   version="1.1"
   id="svg1"
   inkscape:version="1.4.2 (ebf0e94, 2025-05-08)"
   sodipodi:docname="logo_only.svg"
   xmlns:inkscape="http://www.inkscape.org/namespaces/inkscape"
   xmlns:sodipodi="http://sodipodi.sourceforge.net/DTD/sodipodi-0.dtd"
   xmlns="http://www.w3.org/2000/svg"
   xmlns:svg="http://www.w3.org/2000/svg">
  <sodipodi:namedview
     id="namedview1"
     pagecolor="#ffffff"
     bordercolor="#000000"
     borderopacity="0.25"
     inkscape:showpageshadow="2"
     inkscape:pageopacity="0.0"
     inkscape:pagecheckerboard="0"
     inkscape:deskcolor="#d1d1d1"
     inkscape:document-units="mm"
     inkscape:zoom="0.71891835"
     inkscape:cx="395.7334"
     inkscape:cy="337.3123"
     inkscape:window-width="1920"
     inkscape:window-height="1009"
     inkscape:window-x="1912"
     inkscape:window-y="-8"
     inkscape:window-maximized="1"
     inkscape:current-layer="layer1" />
  <defs
     id="defs1" />
  <g
     inkscape:label="Lager 1"
     inkscape:groupmode="layer"
     id="layer1">
    <path
       style="fill:#ffb605;fill-opacity:1;stroke-width:0.778256"
       d="m 20.319395,62.28615 c -0.461407,-0.362955 -0.555414,-0.607209 -0.555414,-1.442998 0,-1.625797 0.143206,-1.6823 4.436766,-1.750658 l 3.678771,-0.05853 0.05933,-2.477019 0.05933,-2.47702 h -9.686145 c -8.241263,0 -9.8850602,-0.05096 -11.0196099,-0.34164 C 5.146635,53.18852 3.6077239,51.932104 2.5466496,49.863712 L 1.9519584,48.704226 V 30.469137 12.234072 L 2.5447962,11.026484 C 3.3178966,9.4516586 4.3311313,8.4315549 5.8121515,7.7369166 L 7.0109917,7.1746241 H 33.887108 60.763237 l 1.179837,0.5891698 c 1.44325,0.7206709 2.294592,1.5791766 3.074116,3.1000191 l 0.59429,1.159465 0.05841,18.024249 c 0.05202,16.059463 0.02169,18.137192 -0.279045,19.060072 -0.53386,1.638423 -1.964498,3.35296 -3.362898,4.030295 -1.813668,0.878442 -2.689157,0.941984 -12.980756,0.941984 h -9.903647 l 0.05934,2.477018 0.05933,2.477019 3.644045,0.01451 c 3.964146,0.01649 4.010991,0.03006 4.419619,1.26428 0.258063,0.779392 -0.109229,1.83365 -0.760287,2.182102 -0.290379,0.155327 -4.424275,0.227411 -13.057907,0.227411 -12.461303,0 -12.640565,-0.0067 -13.188436,-0.436926 z M 60.751742,49.452885 c 1.226256,-1.152179 1.170871,-0.246622 1.170871,-19.141716 0,-17.09305 -0.0067,-17.389431 -0.425364,-17.976991 -0.233944,-0.328579 -0.744921,-0.794911 -1.135496,-1.036336 l -0.710156,-0.438919 -26.186328,0.05528 -26.1863302,0.05528 -0.8190493,0.92305 -0.8190493,0.923049 v 17.437742 c 0,14.942222 0.044476,17.5269 0.3107495,18.060695 0.334571,0.67071 1.075745,1.424397 1.586389,1.613132 0.1739127,0.06413 12.0945283,0.100051 26.4902883,0.07957 l 26.174101,-0.03739 z M 26.574313,42.613044 C 25.99052,42.121743 25.009036,40.309166 23.052109,36.10831 L 22.094626,34.052897 H 17.515449 12.936273 L 12.345057,33.48646 c -0.810591,-0.776676 -0.826981,-1.958005 -0.0358,-2.580406 0.526423,-0.414101 0.816245,-0.436917 5.553636,-0.436917 5.13499,0 5.833145,0.0986 6.51503,0.920307 0.127455,0.15347 0.852738,1.527092 1.611854,3.052369 0.75913,1.525299 1.465348,2.773241 1.569375,2.773241 0.104037,0 0.253327,-0.428053 0.331782,-0.951217 0.07849,-0.523177 0.226546,-1.003123 0.329109,-1.066492 0.102576,-0.06333 0.186472,-0.29609 0.186472,-0.517076 0,-0.220984 0.128919,-0.808297 0.286548,-1.305116 0.157589,-0.49682 0.452837,-1.519915 0.656101,-2.27359 0.203264,-0.753634 0.44616,-1.607417 0.539769,-1.897277 0.174764,-0.541128 0.636317,-2.169171 1.195323,-4.216207 0.17414,-0.637707 0.394685,-1.3966 0.490104,-1.686482 0.09539,-0.289861 0.378626,-1.23851 0.629373,-2.108093 0.797353,-2.765314 1.079203,-3.37672 1.706048,-3.700885 1.527106,-0.789773 3.003723,0.168323 3.459781,2.244958 0.08502,0.387348 0.231774,0.849678 0.326021,1.027386 0.09419,0.177811 0.466382,1.271762 0.826968,2.431226 0.360586,1.159464 0.735235,2.297827 0.832543,2.529723 0.09725,0.231898 0.617585,1.797151 1.156169,3.478374 0.538571,1.681202 1.070757,3.221475 1.182619,3.422781 0.111888,0.201325 0.203396,0.50967 0.203396,0.68515 0,0.62038 0.535909,0.295038 1.251681,-0.759906 0.398583,-0.587458 1.024098,-1.296493 1.390045,-1.57565 0.658616,-0.502366 0.714281,-0.507483 5.4937,-0.502841 4.43424,0.0041 4.871365,0.03774 5.355335,0.409584 0.743032,0.570894 0.760048,2.174761 0.0294,2.766509 -0.45349,0.367236 -0.87771,0.402984 -4.781441,0.402984 h -4.28377 l -0.71142,0.895945 c -0.391279,0.492777 -1.179677,1.486954 -1.751975,2.209296 -0.57231,0.722316 -1.300361,1.420938 -1.617908,1.552477 -0.881169,0.365017 -2.001577,0.07225 -2.357627,-0.61656 -0.384506,-0.743603 -4.550546,-13.261324 -4.550546,-13.673052 0,-0.171211 -0.112688,-0.273751 -0.25032,-0.227855 -0.258528,0.08622 -0.294064,0.182969 -0.910732,2.481413 -0.202211,0.753635 -0.485979,1.749727 -0.630583,2.213502 -0.307209,0.985201 -0.530362,1.738505 -1.155291,3.899984 -0.251425,0.869602 -0.535193,1.818231 -0.63061,2.108112 -0.09539,0.289862 -0.333087,1.096204 -0.528167,1.791871 -0.195067,0.695696 -0.43489,1.50203 -0.53293,1.791889 -0.09805,0.289887 -0.37852,1.19108 -0.623306,2.002709 -0.488719,1.620342 -0.727105,2.022464 -1.41688,2.389863 -0.717288,0.382071 -1.455024,0.29131 -2.109542,-0.259447 z"
       id="path2"
       sodipodi:nodetypes="ssscccscscccsscccsscscsscccsssssssssscccccsssscssscccssssssscssssssssssssssssscssscsssssssssssssss" />
  </g>
</svg>
